<?xml version="1.0" encoding="UTF-8"?>
<!DOCTYPE svg PUBLIC "-//W3C//DTD SVG 1.1//EN" "http://www.w3.org/Graphics/SVG/1.1/DTD/svg11.dtd">
<svg xmlns="http://www.w3.org/2000/svg" version="1.1" width="140px" height="120px" style="shape-rendering:geometricPrecision; text-rendering:geometricPrecision; image-rendering:optimizeQuality; fill-rule:evenodd; clip-rule:evenodd" xmlns:xlink="http://www.w3.org/1999/xlink">
<g><path style="opacity:1" fill="#131c30" d="M -0.5,-0.5 C 46.1667,-0.5 92.8333,-0.5 139.5,-0.5C 139.5,39.5 139.5,79.5 139.5,119.5C 92.8333,119.5 46.1667,119.5 -0.5,119.5C -0.5,79.5 -0.5,39.5 -0.5,-0.5 Z"/></g>
<g><path style="opacity:1" fill="#096fc9" d="M 58.5,22.5 C 57.3915,23.29 56.0581,23.79 54.5,24C 55.4558,27.3936 55.7892,30.8936 55.5,34.5C 54.5,34.5 53.5,34.5 52.5,34.5C 46.2685,32.6822 42.2685,28.6822 40.5,22.5C 46.5,22.5 52.5,22.5 58.5,22.5 Z"/></g>
<g><path style="opacity:1" fill="#1382d1" d="M 58.5,22.5 C 60.1667,22.5 61.8333,22.5 63.5,22.5C 65.7445,23.9298 68.2445,24.9298 71,25.5C 71.498,28.4816 71.6646,31.4816 71.5,34.5C 72.791,34.2627 73.791,34.596 74.5,35.5C 66.9809,35.825 59.6476,35.4916 52.5,34.5C 53.5,34.5 54.5,34.5 55.5,34.5C 55.7892,30.8936 55.4558,27.3936 54.5,24C 56.0581,23.79 57.3915,23.29 58.5,22.5 Z"/></g>
<g><path style="opacity:1" fill="#0d7fc2" d="M 86.5,26.5 C 90.3918,28.0621 93.7251,30.3954 96.5,33.5C 95.3832,43.4531 95.2165,53.4531 96,63.5C 96.2784,64.4158 96.7784,65.0825 97.5,65.5C 95.5,67.8333 93.5,70.1667 91.5,72.5C 87.8737,74.8199 83.8737,76.1532 79.5,76.5C 92.8726,68.3766 95.8726,57.3766 88.5,43.5C 89.0931,40.2677 88.0931,37.2677 85.5,34.5C 85.393,31.8078 85.7263,29.1411 86.5,26.5 Z"/></g>
<g><path style="opacity:1" fill="#1b91d1" d="M 63.5,22.5 C 71.6846,21.7058 79.3513,23.0391 86.5,26.5C 85.7263,29.1411 85.393,31.8078 85.5,34.5C 88.0931,37.2677 89.0931,40.2677 88.5,43.5C 84.7877,39.3063 80.1211,36.6396 74.5,35.5C 73.791,34.596 72.791,34.2627 71.5,34.5C 71.6646,31.4816 71.498,28.4816 71,25.5C 68.2445,24.9298 65.7445,23.9298 63.5,22.5 Z"/></g>
<g><path style="opacity:1" fill="#035ab3" d="M 40.5,38.5 C 38.5142,55.1338 37.8476,72.1338 38.5,89.5C 40.8333,89.5 43.1667,89.5 45.5,89.5C 45.5,89.8333 45.5,90.1667 45.5,90.5C 42.8333,90.5 40.1667,90.5 37.5,90.5C 37.5,72.8333 37.5,55.1667 37.5,37.5C 38.791,37.2627 39.791,37.596 40.5,38.5 Z"/></g>
<g><path style="opacity:1" fill="#0676bd" d="M 96.5,33.5 C 102.134,38.1016 105.134,44.1016 105.5,51.5C 103.732,54.6057 102.232,57.9391 101,61.5C 100.051,63.0931 98.8846,64.4264 97.5,65.5C 96.7784,65.0825 96.2784,64.4158 96,63.5C 95.2165,53.4531 95.3832,43.4531 96.5,33.5 Z"/></g>
<g><path style="opacity:1" fill="#036acc" d="M 40.5,38.5 C 44.5882,40.2539 47.2549,43.2539 48.5,47.5C 47.2716,61.4967 47.2716,75.4967 48.5,89.5C 47.5,89.5 46.5,89.5 45.5,89.5C 43.1667,89.5 40.8333,89.5 38.5,89.5C 37.8476,72.1338 38.5142,55.1338 40.5,38.5 Z"/></g>
<g><path style="opacity:1" fill="#0772cf" d="M 48.5,47.5 C 49.1667,47.5 49.5,47.8333 49.5,48.5C 50.392,58.1343 50.7253,67.8009 50.5,77.5C 52.9686,78.3171 55.6353,78.8171 58.5,79C 57.2341,79.3095 56.0674,79.8095 55,80.5C 54.502,83.4816 54.3354,86.4816 54.5,89.5C 52.5,89.5 50.5,89.5 48.5,89.5C 47.2716,75.4967 47.2716,61.4967 48.5,47.5 Z"/></g>
<g><path style="opacity:1" fill="#0e3f70" d="M 49.5,48.5 C 50.2216,48.9175 50.7216,49.5842 51,50.5C 51.4998,59.4938 51.6664,68.4938 51.5,77.5C 51.1667,77.5 50.8333,77.5 50.5,77.5C 50.7253,67.8009 50.392,58.1343 49.5,48.5 Z"/></g>
<g><path style="opacity:1" fill="#229eda" d="M 105.5,51.5 C 106.584,63.9318 102.584,74.2651 93.5,82.5C 91.7006,79.4954 91.0339,76.162 91.5,72.5C 93.5,70.1667 95.5,67.8333 97.5,65.5C 98.8846,64.4264 100.051,63.0931 101,61.5C 102.232,57.9391 103.732,54.6057 105.5,51.5 Z"/></g>
<g><path style="opacity:1" fill="#1a90d6" d="M 91.5,72.5 C 91.0339,76.162 91.7006,79.4954 93.5,82.5C 88.8559,86.3823 83.5226,88.7157 77.5,89.5C 75.8333,89.5 74.1667,89.5 72.5,89.5C 72.3354,86.4816 72.502,83.4816 73,80.5C 73.7504,79.8742 74.5838,79.3742 75.5,79C 74.2625,78.7679 73.2625,78.2679 72.5,77.5C 74.861,77.3259 77.1944,76.9926 79.5,76.5C 83.8737,76.1532 87.8737,74.8199 91.5,72.5 Z"/></g>
<g><path style="opacity:1" fill="#117ccd" d="M 50.5,77.5 C 50.8333,77.5 51.1667,77.5 51.5,77.5C 58.5,77.5 65.5,77.5 72.5,77.5C 73.2625,78.2679 74.2625,78.7679 75.5,79C 74.5838,79.3742 73.7504,79.8742 73,80.5C 72.502,83.4816 72.3354,86.4816 72.5,89.5C 74.1667,89.5 75.8333,89.5 77.5,89.5C 67.0131,90.4944 56.3464,90.8278 45.5,90.5C 45.5,90.1667 45.5,89.8333 45.5,89.5C 46.5,89.5 47.5,89.5 48.5,89.5C 50.5,89.5 52.5,89.5 54.5,89.5C 54.3354,86.4816 54.502,83.4816 55,80.5C 56.0674,79.8095 57.2341,79.3095 58.5,79C 55.6353,78.8171 52.9686,78.3171 50.5,77.5 Z"/></g>
</svg>
